<?xml version="1.0" encoding="UTF-8"?><svg id="uuid-74883016-00f6-400f-8531-9c76a3905895" xmlns="http://www.w3.org/2000/svg" viewBox="0 0 26.99 30.11"><g id="uuid-072990d6-7947-4ef1-9280-be9ebb8b7af5"><path d="m12.88,19.9c-1.39,0-2.78,0-4.18,0-.52,0-.65-.13-.65-.64,0-.65-.01-1.31,0-1.96.02-1.39.95-2.31,2.33-2.35.2,0,.4.01.59,0,.35-.03.59.08.83.36.55.65,1.64.62,2.24-.05.21-.24.43-.33.73-.31.4.03.82,0,1.21.08,1.01.22,1.71,1.09,1.74,2.12.02.74.01,1.48,0,2.21,0,.37-.2.53-.61.53-1.41,0-2.83,0-4.24,0Z" style="fill:#52565a;"/><path d="m18.62,18.6c0-.41,0-.78,0-1.15.02-1.57-.71-2.64-2.14-3.25-.03-.01-.05-.03-.15-.09.25-.05.44-.1.63-.12.19-.02.37,0,.56,0,.36-.03.64.08.92.34.6.58,1.43.51,2.03-.09.13-.13.35-.22.53-.23.37-.03.75-.03,1.11.04.98.18,1.69,1.01,1.72,2.01.02.68.01,1.37,0,2.05,0,.31-.15.49-.44.49-1.58,0-3.15,0-4.78,0Z" style="fill:#52565a;"/><path d="m9.39,14.2c-2.08.77-2.41,2.44-2.22,4.38-.13,0-.22.02-.31.02-1.44,0-2.89,0-4.33,0-.45,0-.58-.12-.58-.57,0-.7-.02-1.39.02-2.09.06-1.09.95-1.9,2.04-1.9.15,0,.29,0,.44,0,.4-.03.73.03,1.04.39.44.51,1.43.44,1.91-.09.21-.24.44-.32.74-.3.42.03.84.03,1.26.04,0,.04.01.08.02.11Z" style="fill:#52565a;"/><path d="m23,6.97c-1.09-1.31-2.37-2.33-3.87-3.07-.63-.31-1.3-.55-1.95-.81-.34-.13-.46-.32-.37-.6.09-.27.34-.38.65-.29,2.43.73,4.45,2.1,6.12,3.99.13.15.23.21.44.14,1.1-.32,2.27.39,2.54,1.51.27,1.13-.39,2.22-1.54,2.5-1.07.26-2.25-.49-2.5-1.58-.15-.67.01-1.25.45-1.8Z" style="fill:#52565a;"/><path d="m26.91,15.03c.01,1.52-.25,2.99-.75,4.42-.06.18-.04.29.1.43.53.56.8,1.21.56,1.99-.25.79-.8,1.3-1.6,1.45-.8.15-1.51-.11-2.02-.76-.51-.65-.56-1.38-.21-2.11.36-.74.94-1.2,1.8-1.14.37.02.48-.11.59-.43.69-2.13.79-4.29.32-6.48-.08-.37.04-.65.31-.71.29-.07.54.11.6.51.15.94.26,1.88.39,2.83-.03,0-.06,0-.08.01Z" style="fill:#52565a;"/><path d="m11.28,2.7c-2.35.45-4.43,1.43-6.2,3.04-.34.31-.61.36-.8.15-.22-.24-.16-.5.18-.82,1.81-1.65,3.94-2.7,6.34-3.18.22-.04.37-.09.44-.37.24-.97,1.17-1.6,2.15-1.51,1,.09,1.85.9,1.93,1.85.08,1.03-.53,1.91-1.52,2.18-.93.25-1.92-.18-2.37-1.05-.05-.09-.09-.18-.14-.29Z" style="fill:#52565a;"/><path d="m15.6,27.4c2.34-.46,4.41-1.42,6.17-3.01.07-.06.13-.13.21-.19.2-.14.43-.21.61,0,.18.21.16.46-.04.64-.36.33-.72.66-1.11.95-1.62,1.23-3.44,2.02-5.44,2.41-.22.04-.34.12-.4.37-.27,1.06-1.31,1.69-2.4,1.49-1.02-.19-1.73-1.16-1.63-2.25.09-1.01.98-1.83,2.03-1.83.96,0,1.61.51,2,1.41Z" style="fill:#52565a;"/><path d="m1.6,10.8c-.19.88-.42,1.75-.56,2.63-.24,1.47-.15,2.94.18,4.39.07.32-.05.54-.29.6-.29.07-.51-.08-.58-.41-.57-2.48-.41-4.92.43-7.32.1-.28.05-.43-.16-.62-.56-.51-.67-1.18-.47-1.88.28-1.02,1.3-1.65,2.3-1.47,1.09.2,1.8,1.12,1.69,2.19-.11,1.12-.95,1.9-2.04,1.91-.12,0-.25,0-.37,0-.04,0-.08,0-.11-.01Z" style="fill:#52565a;"/><path d="m3.88,23.14c.87,1.05,1.88,1.95,3.06,2.61.84.46,1.74.81,2.62,1.21.07.03.14.04.21.07.26.11.4.34.33.52-.09.23-.38.39-.65.29-.77-.3-1.56-.57-2.29-.94-1.49-.75-2.75-1.81-3.85-3.06-.11-.12-.18-.2-.38-.14-.84.26-1.57.03-2.14-.61-.58-.64-.74-1.4-.36-2.19.38-.79,1.03-1.2,1.92-1.19.89.01,1.51.47,1.88,1.26.34.72.21,1.41-.26,2.05-.02.03-.04.07-.07.11Z" style="fill:#52565a;"/><path d="m12.87,14.87c-1.36,0-2.49-1.14-2.49-2.5,0-1.38,1.14-2.52,2.52-2.52,1.39,0,2.52,1.14,2.51,2.52,0,1.37-1.15,2.5-2.54,2.5Z" style="fill:#52565a;"/><path d="m6.43,14c-1.32,0-2.35-1.04-2.34-2.35,0-1.26,1.07-2.31,2.34-2.3,1.28.01,2.34,1.09,2.33,2.36-.02,1.31-1.03,2.31-2.32,2.3Z" style="fill:#52565a;"/><path d="m19.37,14c-1.28,0-2.32-1.02-2.33-2.3,0-1.29,1.02-2.34,2.31-2.36,1.27-.01,2.34,1.06,2.34,2.34,0,1.28-1.04,2.31-2.32,2.32Z" style="fill:#52565a;"/></g></svg>