<?xml version="1.0" encoding="UTF-8"?><svg id="uuid-e7edfbe8-996b-4df0-87b2-51716660f783" xmlns="http://www.w3.org/2000/svg" viewBox="0 0 30 29.58"><g id="uuid-2139a72e-983c-4f9c-a1f7-3065c8ff5ff0"><path d="m27.02,8.56c0-.15,0-.27,0-.39,0-1.17-.02-2.35,0-3.52.02-.81-.61-1.35-1.31-1.31-.93.05-1.86.01-2.8.01-.11,0-.21,0-.34,0v-1.24c.11,0,.22,0,.32,0,.95,0,1.91.04,2.86,0,1.12-.05,2.21.82,2.43,1.93.03.17.06.35.06.53,0,3.68,0,7.36,0,11.04,0,.11,0,.21,0,.35-.4-.3-.78-.57-1.13-.86-.08-.06-.1-.23-.1-.35,0-1.52-.01-3.05,0-4.57,0-.28-.08-.38-.37-.38-8.34,0-16.68,0-25.02,0-.3,0-.39.09-.39.39,0,4.95,0,9.91,0,14.86,0,.87.46,1.34,1.33,1.34,4.15-.02,8.3,0,12.45-.01.17,0,.31,0,.42.19.21.37.47.71.72,1.08-.09,0-.18.01-.26.01-4.41,0-8.82,0-13.23,0C1.1,27.65,0,26.59,0,24.98c0-6.78,0-13.56,0-20.33,0-1.28.74-2.17,1.96-2.51.07-.02.14-.01.21-.01,1.08,0,2.17,0,3.25,0,.27,0,.33.13.33.34,0,.29-.04.57-.07.91-.11,0-.22,0-.32,0-.96,0-1.93.02-2.89,0-.58-.02-1.22.46-1.22,1.19,0,1.24,0,2.49,0,3.73,0,.32.19.29.4.29,4.26,0,8.52,0,12.78,0,4.06,0,8.12,0,12.18,0,.13,0,.25,0,.42,0Z" style="fill:#52565a;"/><path d="m22.54,29.58c-3.95.06-7.46-3.19-7.41-7.53.04-3.99,3.19-7.3,7.41-7.34,4.09-.04,7.65,3.33,7.46,7.83-.16,3.7-3.3,7.08-7.46,7.03Zm-6.33-7.42c0,3.53,2.82,6.37,6.32,6.36,3.55,0,6.4-2.82,6.4-6.33,0-3.57-2.81-6.41-6.35-6.4-3.56,0-6.38,2.82-6.38,6.37Z" style="fill:#52565a;"/><path d="m19.74,3.86c0-.96,0-1.92,0-2.88,0-.45.32-.85.73-.94.46-.11.92.09,1.1.51.08.18.11.39.11.58,0,1.84,0,3.68,0,5.53,0,.43-.11.82-.54,1.02-.67.32-1.4-.13-1.41-.89,0-.97,0-1.94,0-2.91Z" style="fill:#52565a;"/><path d="m6.62,3.86c0-.98,0-1.96,0-2.94,0-.55.37-.9.93-.9.56,0,.97.38.97.92,0,1.97,0,3.95,0,5.92,0,.54-.4.9-.98.9-.55,0-.91-.35-.92-.88,0-1,0-2,0-3Z" style="fill:#52565a;"/><path d="m9.47,3.34v-1.2h9.38v1.2h-9.38Z" style="fill:#52565a;"/><path d="m15.74,13.28c0,.46.08.94-.34,1.27-.17.14-.39.27-.59.3-.62.09-1.25.18-1.82-.19-.3-.19-.45-.5-.47-.85-.01-.33.02-.66,0-.99-.05-.6.57-1.22,1.19-1.19.39.02.78,0,1.16.05.56.08.93.66.88,1.13-.02.16,0,.32,0,.48Z" style="fill:#52565a;"/><path d="m11.17,18.25c-.03.37.09.79-.22,1.14-.23.25-.48.44-.83.44-.37,0-.74,0-1.11,0-.52,0-1.05-.54-1.06-1.06,0-.33,0-.66,0-.99-.01-.54.24-.94.73-1.1.62-.21,1.27-.23,1.89.06.41.19.6.53.6.98,0,.17,0,.34,0,.54Z" style="fill:#52565a;"/><path d="m6.67,13.3c-.08.34-.12.69-.24,1.02-.1.27-.34.44-.62.51-.58.13-1.16.14-1.73-.04-.37-.12-.62-.42-.66-.78-.05-.52-.06-1.06.04-1.57.1-.52.57-.82,1.11-.81.4,0,.8-.01,1.19.06.55.1.85.52.85,1.09,0,.17,0,.34,0,.51.02,0,.05,0,.07.01Z" style="fill:#52565a;"/><path d="m11.19,23.21c-.03.28-.01.56-.09.82-.14.48-.52.71-1,.76-.58.06-1.17.12-1.7-.24-.3-.21-.44-.5-.46-.85-.01-.32.02-.64,0-.96-.04-.52.4-1.11.98-1.17.47-.05.96-.01,1.43.05.46.06.81.53.82.99,0,.2,0,.4,0,.6,0,0,.02,0,.03,0Z" style="fill:#52565a;"/><path d="m6.62,23.19c-.02.28,0,.56-.08.82-.14.48-.51.71-1,.77-.6.07-1.2.14-1.72-.25-.16-.12-.36-.32-.37-.5-.05-.56-.09-1.13,0-1.68.09-.53.57-.81,1.11-.8.39,0,.78,0,1.16.06.55.09.86.52.86,1.07,0,.17,0,.34,0,.51h.02Z" style="fill:#52565a;"/><path d="m12.53,18.21c0-.24-.04-.49,0-.72.08-.42.34-.73.76-.83.65-.16,1.3-.19,1.91.13.09.05.19.12.25.2.15.18.24.33.06.61-.38.64-.68,1.34-.98,2.02-.07.17-.14.24-.32.23-.2-.01-.4-.02-.6,0-.52.06-1.18-.61-1.11-1.13.02-.17,0-.34,0-.51,0,0,0,0,.01,0Z" style="fill:#52565a;"/><path d="m24.89,14c-1.08-.09-2.13-.18-3.22-.28.05-.44-.14-.97.13-1.47.22-.4.56-.62,1.01-.62.43,0,.86,0,1.28.07.44.08.85.57.81,1.12-.03.41,0,.82,0,1.18Z" style="fill:#52565a;"/><path d="m14.18,21.55c-.05,1.12.08,2.2.44,3.28-.59-.02-1.15.08-1.65-.28-.29-.21-.43-.48-.45-.82-.02-.35,0-.7,0-1.05,0-.58.5-1.1,1.08-1.13.18,0,.36,0,.58,0Z" style="fill:#52565a;"/><path d="m11.65,11.7c-.02.1-.02.21-.08.28-.7.9-1.4,1.79-2.12,2.68-.22.28-.35.27-.58,0-.44-.51-.87-1.04-1.3-1.56-.05-.06-.08-.15-.09-.25.65.25,1.09.79,1.67,1.19.74-.87,1.56-1.66,2.41-2.41.03.02.06.04.1.06Z" style="fill:#52565a;"/><path d="m16.67,12.82c.6.3,1.05.82,1.62,1.23.74-.87,1.56-1.65,2.41-2.41.03.02.06.04.1.06-.02.09-.01.21-.07.28-.7.9-1.4,1.79-2.12,2.68-.23.29-.36.28-.6,0-.43-.5-.85-1.01-1.27-1.52-.06-.07-.1-.16-.15-.24.03-.03.05-.05.08-.08Z" style="fill:#52565a;"/><path d="m2.93,17.8c.1.04.22.07.3.13.34.26.68.53,1,.81.34.29.33.28.63-.03.64-.67,1.29-1.31,1.95-1.96.06-.06.14-.1.21-.14.03.02.05.03.08.05-.04.11-.06.23-.12.31-.69.89-1.38,1.78-2.08,2.66-.14.17-.36.26-.52.08-.52-.59-1.01-1.2-1.52-1.8.03-.04.05-.08.08-.12Z" style="fill:#52565a;"/><path d="m24.95,27.2c-.09.09-.18.24-.32.29-.2.08-.37-.03-.46-.23-.23-.58-.46-1.17-.69-1.76-.39-1-.77-2-1.16-2.99-.1-.25-.09-.44.05-.68.65-1.11,1.29-2.23,1.93-3.35.04-.07.08-.14.13-.2.13-.19.3-.3.54-.18.2.1.26.34.13.57-.21.39-.44.76-.66,1.14-.42.74-.85,1.47-1.27,2.21-.06.1-.08.27-.04.38.57,1.48,1.15,2.96,1.72,4.44.03.08.05.17.09.34Z" style="fill:#52565a;"/><path d="m22.95,16.65c0,.39-.08.5-.37.51-.24,0-.38-.1-.39-.35,0-.1,0-.2,0-.3,0-.25.07-.43.37-.42.28,0,.38.11.39.44,0,.04,0,.08,0,.12Z" style="fill:#52565a;"/><path d="m17.05,22.58c-.47-.05-.62-.17-.54-.53.02-.1.16-.24.24-.24.26,0,.52.04.76.14.05.02.06.35-.02.46-.07.11-.28.12-.43.18Z" style="fill:#52565a;"/><path d="m28.13,22.59c-.48-.05-.62-.18-.56-.54,0-.02,0-.05.01-.06.09-.07.18-.19.27-.19.25.01.5.05.73.14.05.02.07.34,0,.43-.09.12-.29.14-.44.21Z" style="fill:#52565a;"/><path d="m22.19,27.66c0-.39.13-.54.44-.5.03,0,.06,0,.09.01.21.07.28.34.23.77-.03.23-.18.29-.38.29-.3,0-.38-.11-.38-.56Z" style="fill:#52565a;"/></g></svg>