<?xml version="1.0" encoding="UTF-8"?><svg id="uuid-33c3212f-ac25-43e7-9179-45af0ee4db11" xmlns="http://www.w3.org/2000/svg" viewBox="0 0 31.25 30.12"><g id="uuid-b408be75-5262-49ca-81e1-b0eaadf27f8e"><path d="m26.19,18.86c0,2.15.03,4.28-.01,6.4-.02,1.08-.44,2.03-1.07,2.85-.83,1.08-1.89,1.73-3.14,1.94-.27.05-.55.06-.82.06-5.33,0-10.67,0-16,0-1.67,0-3.07-.68-4.13-2.15-.6-.84-.94-1.81-.99-2.89-.02-.36-.02-.71-.03-1.07C0,18.57.01,13.14,0,7.71c0-1.79.55-3.27,1.8-4.4.83-.75,1.78-1.17,2.85-1.24.33-.02.33-.02.33.35,0,.51,0,1.02,0,1.54,0,.18-.06.23-.21.26-1.35.28-2.31,1.1-2.76,2.57-.12.37-.15.8-.15,1.2,0,2.91,0,5.82,0,8.73,0,2.45.03,4.91-.02,7.36-.04,2.37,1.67,3.94,3.52,3.93,2,0,4-.01,6-.01,2.85,0,5.7,0,8.54,0,.5,0,1,.01,1.49-.05,1.34-.17,2.98-1.47,2.94-3.86-.01-.87,0-1.74,0-2.61,0-.2.04-.35.16-.49.46-.56.91-1.12,1.36-1.68.12-.14.23-.29.34-.44Z" style="fill:#52565a;"/><path d="m21.21,2.03c.51.02,1,.06,1.48.2,1.43.42,2.5,1.21,3.13,2.46.31.62.4,1.28.4,1.96,0,.06-.03.13-.07.17-.6.59-1.2,1.18-1.83,1.8,0-.25,0-.48,0-.7,0-.43.02-.86-.01-1.29-.09-1.37-1.2-2.52-2.69-2.79-.13-.02-.27-.05-.41-.07v-1.74Z" style="fill:#52565a;"/><path d="m19.03,2.26c0,.43,0,.86,0,1.29,0,.17.04.3.15.44.32.38.39.81.18,1.25-.26.54-.81.79-1.51.71-.49-.06-.96-.51-1.06-1.03-.08-.38.09-.68.32-.98.05-.07.09-.16.09-.24,0-.95,0-1.91,0-2.86,0-.38.31-.74.71-.82.43-.08.86.09,1.03.44.06.12.08.26.09.4.01.47,0,.93,0,1.4,0,0,0,0,0,0Z" style="fill:#52565a;"/><path d="m14.05,2.28c0,.4,0,.81,0,1.21,0,.22.05.4.19.58.6.77.02,1.6-.64,1.82-.56.18-1.19.03-1.54-.4-.36-.45-.38-1.04,0-1.47.13-.15.18-.29.18-.48-.01-.9-.01-1.8,0-2.71,0-.42.28-.73.71-.81.59-.11,1.12.28,1.13.83,0,.48,0,.95,0,1.43Z" style="fill:#52565a;"/><path d="m9.02,2.26c0,.48-.01.95,0,1.43,0,.11.09.23.16.32.51.65.26,1.51-.53,1.85-.53.22-1.19.09-1.58-.33-.39-.42-.43-1.03-.08-1.46.13-.16.19-.33.18-.53-.01-.86,0-1.72,0-2.58,0-.24.04-.48.23-.66.26-.26.64-.35,1-.23.38.13.58.39.59.75.02.49,0,.97,0,1.46h0Z" style="fill:#52565a;"/><path d="m26.43,8.94c1.06,1.02,2.1,2.02,3.16,3.03-2.05,2.41-4.09,4.8-6.13,7.19-1.05-1.01-2.09-2.02-3.16-3.05,2.05-2.4,4.08-4.77,6.13-7.17Z" style="fill:#52565a;"/><path d="m30.18,11.31c-1.02-.97-2-1.91-2.98-2.84-.04-.04-.1-.07-.13-.12-.02-.05-.03-.14,0-.18.23-.28.48-.53.7-.82.31-.4.68-.47,1.12-.33.72.23,1.27.73,1.75,1.33.27.33.49.7.57,1.14.04.22.05.45-.08.63-.31.4-.63.79-.95,1.19Z" style="fill:#52565a;"/><path d="m18.59,21.44c.47-1.64.93-3.24,1.4-4.87,1.03.99,2.03,1.96,3.06,2.95-1.49.64-2.96,1.27-4.46,1.91Z" style="fill:#52565a;"/><path d="m13.28,24.98c-1.95.03-3.85-1.53-3.84-3.85.01-2.34,1.92-3.83,3.86-3.82,2.13.02,3.82,1.73,3.81,3.9,0,2.07-1.74,3.77-3.83,3.77Zm-.33-2.96c-.47-.42-.91-.82-1.36-1.22-.1-.09-.21-.18-.34-.22-.33-.11-.64,0-.8.27-.16.26-.11.6.14.83.65.6,1.3,1.18,1.96,1.76.26.23.53.25.8.09.11-.07.21-.18.3-.28.4-.45.8-.9,1.19-1.35.45-.51.91-1.01,1.35-1.53.25-.3.22-.65-.05-.91-.25-.24-.63-.24-.91,0-.11.09-.2.2-.3.3-.55.62-1.1,1.25-1.65,1.88-.1.12-.21.23-.33.36Z" style="fill:#52565a;"/><path d="m10.29,24.94c-.07,0-.13,0-.2,0-1.78,0-3.56,0-5.34,0-.38,0-.53-.25-.54-.48,0-.26.23-.47.53-.47,1.51,0,3.02,0,4.53,0,.07,0,.17.05.22.11.27.27.52.55.8.84Z" style="fill:#52565a;"/><path d="m10.03,17.59c-.24.3-.48.6-.73.89-.03.04-.1.06-.15.06-1.47,0-2.95,0-4.42,0-.23,0-.43-.15-.49-.35-.06-.19,0-.38.16-.5.08-.05.19-.1.28-.1,1.77,0,3.55,0,5.32,0,.02,0,.03,0,.03,0Z" style="fill:#52565a;"/><path d="m16.23,24.94c.23-.23.48-.41.65-.65.19-.27.4-.32.7-.31.96.02,1.93,0,2.89,0,.32,0,.53.17.55.43.02.29-.14.49-.44.52-.04,0-.08,0-.12,0-1.36,0-2.72,0-4.08,0-.04,0-.09,0-.15,0Z" style="fill:#52565a;"/><path d="m16.53,17.59s.08,0,.13,0c1.25,0,2.51,0,3.76,0,.08,0,.17,0,.25.02.24.06.35.2.35.43,0,.24-.11.4-.35.46-.1.03-.21.03-.32.04-.97,0-1.94,0-2.91,0-.06,0-.15-.02-.19-.07-.24-.28-.48-.57-.72-.87Z" style="fill:#52565a;"/><path d="m10.29,15.1c-.07,0-.13,0-.2,0-1.78,0-3.56,0-5.34,0-.38,0-.53-.25-.54-.48,0-.26.23-.47.53-.47,1.51,0,3.02,0,4.53,0,.07,0,.17.05.22.11.27.27.52.55.8.84Z" style="fill:#52565a;"/><path d="m10.03,7.75c-.24.3-.48.6-.73.89-.03.04-.1.06-.15.06-1.47,0-2.95,0-4.42,0-.23,0-.43-.15-.49-.35-.06-.19,0-.38.16-.5.08-.05.19-.1.28-.1,1.77,0,3.55,0,5.32,0,.02,0,.03,0,.03,0Z" style="fill:#52565a;"/><path d="m16.23,15.1c.23-.23.48-.41.65-.65.19-.27.4-.32.7-.31.96.02,1.93,0,2.89,0,.32,0,.53.17.55.43.02.29-.14.49-.44.52-.04,0-.08,0-.12,0-1.36,0-2.72,0-4.08,0-.04,0-.09,0-.15,0Z" style="fill:#52565a;"/><path d="m16.53,7.75s.08,0,.13,0c1.25,0,2.51,0,3.76,0,.08,0,.17,0,.25.02.24.06.35.2.35.43,0,.24-.11.4-.35.46-.1.03-.21.03-.32.04-.97,0-1.94,0-2.91,0-.06,0-.15-.02-.19-.07-.24-.28-.48-.57-.72-.87Z" style="fill:#52565a;"/><path d="m13.12,7.47c-1.94-.01-3.85,1.47-3.86,3.82-.01,2.33,1.88,3.88,3.84,3.85,2.09,0,3.82-1.7,3.83-3.77,0-2.17-1.68-3.88-3.81-3.9Zm.98,5.31l-.66-.68c-.17-.18-.32-.35-.48-.53h-.02c-.15.19-.3.34-.47.53l-.64.68h-.89l1.58-1.55-1.51-1.48h.9l.63.65c.17.17.3.33.45.49h.02c.15-.17.3-.33.45-.5l.62-.64h.88l-1.52,1.46,1.56,1.57h-.91Z" style="fill:#52565a;"/></g></svg>