<?xml version="1.0" encoding="UTF-8"?><svg id="uuid-4ef1d6fa-99ec-48b8-bcac-66c26047b15f" xmlns="http://www.w3.org/2000/svg" viewBox="0 0 30 29.86"><g id="uuid-eb497f9e-ff72-48a2-ad1e-626d8b30bc73"><path d="m30,15.16c-.03.42-.04,1.04-.12,1.66-.14,1.03-.35,2.05-.72,3.03-.37,1.02-.82,2-1.38,2.92-.48.79-1.03,1.53-1.66,2.2-1.06,1.13-2.21,2.15-3.6,2.87-.59.31-1.16.66-1.78.89-.88.33-1.77.64-2.71.8-.75.13-1.5.28-2.26.31-.67.02-1.34,0-2.01-.04-.55-.04-1.1-.12-1.64-.22-.72-.12-1.43-.29-2.12-.57-.41-.16-.84-.29-1.24-.47-.92-.43-1.82-.92-2.64-1.53-1.28-.96-2.4-2.07-3.33-3.38-.77-1.08-1.38-2.25-1.85-3.48-.17-.44-.29-.9-.42-1.35C.1,17.23-.06,15.61.02,13.97c.03-.74.16-1.48.32-2.21.15-.69.34-1.38.59-2.04.27-.7.61-1.38.96-2.05.53-1.01,1.21-1.93,1.99-2.76.74-.79,1.51-1.55,2.42-2.15,1.04-.7,2.12-1.34,3.31-1.74.71-.24,1.42-.48,2.15-.64.79-.17,1.6-.3,2.41-.35.68-.05,1.37,0,2.06.06.57.04,1.14.12,1.71.23,1.73.33,3.34.96,4.85,1.87,1.9,1.15,3.46,2.65,4.69,4.5.76,1.15,1.35,2.38,1.77,3.69.48,1.49.67,3.02.75,4.79Zm-14.98,11.7c1.33-.03,2.65-.2,3.91-.67,1-.37,1.97-.82,2.85-1.45,1.24-.89,2.3-1.94,3.18-3.21.9-1.3,1.41-2.75,1.79-4.26.09-.36.14-.74.18-1.11.12-1.19.03-2.37-.2-3.53-.27-1.33-.77-2.57-1.45-3.75-.79-1.37-1.87-2.47-3.09-3.45-.7-.56-1.48-.98-2.28-1.36-.44-.2-.9-.34-1.36-.5-.67-.22-1.35-.41-2.06-.46-.74-.05-1.48-.03-2.21-.05-.77-.01-1.51.12-2.25.35-.5.16-1.03.26-1.51.47-.6.26-1.19.57-1.75.9-1.03.6-1.94,1.36-2.73,2.25-1.12,1.27-1.93,2.72-2.46,4.33-.36,1.1-.5,2.24-.55,3.39-.01.26.06.52.07.78.03,1.12.26,2.2.62,3.25.51,1.49,1.28,2.82,2.33,3.99.85.94,1.79,1.77,2.89,2.4.81.47,1.65.88,2.55,1.14,1.16.34,2.33.55,3.55.52Z" style="fill:#52565a;"/><path d="m22.53,19.31c-.37.59-.73,1.16-1.08,1.74-.04.07-.08.09-.17.04-1.9-1.14-3.81-2.27-5.72-3.41-.64-.38-1.28-.76-1.92-1.14-.09-.05-.15-.1-.15-.22,0-1.92,0-3.84,0-5.76,0-.97,0-1.95,0-2.92,0-.13.04-.17.16-.17.65,0,1.3,0,1.95-.01.13,0,.16.04.16.17,0,2.45,0,4.9-.01,7.34,0,.22.05.35.26.47,1.67.97,3.33,1.96,4.99,2.95.47.28.95.56,1.42.85.03.02.05.04.09.07Z" style="fill:#52565a;"/></g></svg>