<?xml version="1.0" encoding="UTF-8"?><svg id="uuid-22441851-ccc7-40f1-b981-6aed7693d009" xmlns="http://www.w3.org/2000/svg" viewBox="0 0 30 31.88"><g id="uuid-8d85a79a-ecbd-42d2-ad8f-463acaad7fb7"><path d="m10.64,24.93c-.53,0-1.07,0-1.6,0-.45,0-.89,0-1.32-.17-.91-.35-1.55-1.26-1.55-2.24,0-1.43,0-2.86,0-4.29,0-.15-.03-.25-.18-.33-1.61-.89-3.21-1.79-4.81-2.69-1.11-.62-1.52-2.11-.89-3.27.73-1.34,1.49-2.67,2.23-4.01,1.05-1.88,2.1-3.75,3.15-5.63.19-.34.4-.68.59-1.02C6.99,0,8.48-.32,9.63.31c1.04.57,2.07,1.14,3.1,1.72,3.14,1.75,6.29,3.5,9.42,5.28.63.36,1.24.54,1.96.51,1.15-.05,2.3-.03,3.45,0,1.42.03,2.43,1.1,2.43,2.52,0,3.8,0,7.6,0,11.4,0,.35.02.71-.02,1.06-.15,1.17-1.13,2.08-2.31,2.12-.66.03-1.32.01-1.99,0-.16,0-.2.04-.21.2-.3,2.78-1.71,4.81-4.21,6.03-1.17.57-2.45.83-3.74.69-2.44-.25-4.39-1.36-5.73-3.48-.66-1.04-.99-2.16-1.12-3.37,0-.02-.01-.04-.02-.07Zm7.48-6.9c-3.79-.03-6.36,3.06-6.43,6.26-.08,3.67,3.02,6.58,6.5,6.52,3.47-.07,6.45-2.95,6.28-6.77-.15-3.36-3.02-6.05-6.35-6.01Zm-.03-2.35h0c-3.34,0-6.69,0-10.03,0-.22,0-.44,0-.66,0-.11,0-.15.02-.15.14,0,2.22,0,4.44,0,6.66,0,.79.57,1.37,1.36,1.39.63.02,1.27,0,1.91,0,.15,0,.17-.08.18-.2.12-1.2.45-2.33,1.16-3.33,1.79-2.53,4.22-3.68,7.3-3.29,1.68.21,3.13.95,4.31,2.2.69.74,1.24,1.57,1.6,2.52.23.62.4,1.26.43,1.93,0,.1,0,.18.15.18.66,0,1.32,0,1.99-.01.3,0,.57-.11.81-.31.43-.36.52-.84.52-1.35,0-2.11-.01-4.23-.02-6.34,0-.15-.03-.19-.19-.19-3.55,0-7.1,0-10.65,0Zm-11.92,1.1c0-.12,0-.19,0-.26,0-2.08,0-4.16,0-6.24,0-.65.22-1.23.69-1.7.54-.54,1.19-.77,1.96-.77,3.87.01,7.73,0,11.6,0,.12,0,.25,0,.37,0-.09-.11-.2-.17-.31-.23-2.92-1.63-5.83-3.26-8.75-4.88-.89-.5-1.77-1.02-2.67-1.5-.7-.38-1.5-.1-1.89.6-.73,1.33-1.47,2.67-2.21,4-1.23,2.2-2.46,4.4-3.69,6.59-.14.25-.23.51-.21.8.05.55.32.95.8,1.21,1.3.71,2.6,1.43,3.89,2.15.13.07.25.14.41.23Zm1.08-5.22c.09,0,.15,0,.22,0,4.32,0,8.64,0,12.96,0,2.77,0,5.54,0,8.31,0,.1,0,.2.03.2-.14,0-.38,0-.76,0-1.14,0-.32-.11-.62-.31-.87-.34-.43-.8-.54-1.32-.54-5.96,0-11.92,0-17.88,0-.33,0-.67,0-1,.04-.58.05-1.11.54-1.16,1.11-.04.5,0,1.01,0,1.55Zm10.83,1.07h0c-1.54,0-3.08,0-4.61,0-2.01,0-4.01,0-6.02,0-.16,0-.22.02-.22.21.02.49,0,.99,0,1.48,0,.29-.07.29.29.29,6.66,0,13.32,0,19.98,0,.41,0,.82,0,1.22,0,.17,0,.2-.05.2-.21-.01-.51-.02-1.03,0-1.54,0-.2-.06-.23-.24-.23-3.54,0-7.07,0-10.61,0Z" style="fill:#52565a;"/><path d="m18.78,21.54c.23,0,.45,0,.67,0,.24,0,.45.07.57.3.16.32,0,.67-.34.75-.13.03-.27.02-.4.02-.5,0-1,0-1.5,0-.38,0-.64.25-.65.62,0,.35.25.63.63.64.27.01.55-.01.82.02.8.09,1.4.69,1.51,1.48.1.75-.34,1.45-1.1,1.74-.14.05-.23.1-.22.28,0,.27-.22.47-.49.48-.26.01-.5-.17-.53-.44-.02-.16-.09-.18-.22-.18-.32,0-.64,0-.96-.02-.27-.02-.47-.25-.47-.51,0-.24.17-.45.43-.5.16-.03.32-.03.48-.03.45,0,.9,0,1.34,0,.38,0,.66-.24.67-.57.01-.36-.23-.65-.61-.68-.25-.02-.49-.01-.74-.03-.88-.05-1.54-.72-1.57-1.6-.03-.88.56-1.61,1.43-1.73.14-.02.21-.04.22-.2.03-.27.26-.45.51-.44.26,0,.43.16.5.44.01.05.02.09.04.17Z" style="fill:#52565a;"/></g></svg>