<?xml version="1.0" encoding="UTF-8"?><svg id="uuid-62e894e7-66f3-4e0e-a240-55d0546d61bb" xmlns="http://www.w3.org/2000/svg" viewBox="0 0 30 29.2"><g id="uuid-b3f3bc71-06cf-491c-ac79-a3282154a558"><path d="m18.37,21.98c.13-.13.25-.25.36-.38.55-.65,1.1-1.29,1.65-1.94.7-.82,1.39-1.64,2.09-2.46.6-.7,1.2-1.41,1.8-2.11.92-1.08,1.84-2.16,2.75-3.24.3-.35.6-.71.9-1.06.14-.17.25-.17.4-.01.53.56,1.05,1.11,1.58,1.67.13.13.13.21.02.36-.11.15-.23.3-.36.44-.85,1-1.7,1.99-2.54,2.98-1.15,1.35-2.3,2.7-3.45,4.06-.9,1.06-1.79,2.11-2.69,3.17-.77.91-1.53,1.81-2.3,2.72-.06.07-.14.11-.22.15-.02.01-.08,0-.1-.03-1.06-1.11-2.11-2.22-3.17-3.32-.7-.73-1.39-1.46-2.09-2.19-.07-.08-.13-.08-.2-.01-.11.11-.22.21-.33.32-.98,1.02-1.96,2.04-2.93,3.07-.82.86-1.64,1.73-2.47,2.59-.74.77-1.48,1.55-2.22,2.32-.17.18-.25.19-.43,0-.24-.24-.46-.48-.69-.72-.32-.33-.64-.67-.96-1-.16-.16-.16-.29,0-.46,1.52-1.6,3.05-3.2,4.58-4.8,1.15-1.21,2.3-2.42,3.45-3.62.61-.64,1.22-1.27,1.82-1.91.02-.02.04-.04.06-.06.18-.17.24-.17.41.01.92.96,1.85,1.92,2.77,2.89.72.75,1.44,1.51,2.16,2.26.1.11.21.21.34.34Z" style="fill:#52565a;"/><path d="m10.11,9.94c-.08-.17-.17-.34-.25-.52-.26-.6-.52-1.21-.78-1.81-.13-.29-.26-.59-.38-.88-.05-.12-.14-.2-.26-.25-.86-.4-1.71-.81-2.57-1.21-.14-.07-.29-.14-.43-.22-.03-.01-.05-.04-.08-.07.34-.17.66-.32.98-.48.51-.24,1.03-.49,1.54-.73.19-.09.37-.18.56-.26.13-.06.21-.15.27-.29.44-1.03.89-2.05,1.34-3.07.02-.04.04-.08.08-.14.08.16.16.29.22.43.22.5.43,1.01.65,1.51.18.42.37.84.55,1.26.06.15.16.24.3.31.64.29,1.27.6,1.91.9.35.17.7.34,1.06.51.03.01.05.04.07.06-.02.02-.03.05-.05.06-.6.29-1.21.58-1.81.86-.4.19-.81.37-1.21.57-.1.05-.2.16-.25.27-.41.91-.8,1.83-1.2,2.75-.06.15-.15.28-.22.42-.01,0-.03,0-.04.01Z" style="fill:#52565a;"/><path d="m3.98,11.67c.04.07.07.11.09.16.18.39.35.79.53,1.18.21.46.42.91.62,1.37.08.17.24.22.38.28.73.36,1.47.7,2.19,1.06.06.03.11.12.14.2,0,.02-.07.09-.11.12-.56.27-1.12.54-1.69.8-.21.1-.42.19-.63.29-.14.06-.24.16-.31.31-.31.71-.63,1.42-.94,2.14-.08.17-.17.34-.25.51-.01,0-.03,0-.04.01-.08-.13-.17-.26-.23-.4-.33-.73-.65-1.45-.96-2.18-.07-.17-.18-.28-.33-.35-.77-.37-1.54-.74-2.31-1.12-.05-.03-.11-.09-.12-.14-.02-.09.04-.14.12-.18.75-.36,1.5-.72,2.26-1.08.19-.09.32-.22.4-.42.24-.58.5-1.16.76-1.74.1-.22.21-.44.31-.65.03-.05.08-.1.13-.16Z" style="fill:#52565a;"/><path d="m20.48,6.32c.08.17.17.34.25.52.33.74.65,1.48.99,2.21.04.1.16.18.26.23.44.22.89.42,1.33.63.29.14.58.27.87.41.08.04.15.1.22.17.08.07.06.12-.03.16-.45.21-.89.42-1.33.64-.36.18-.73.35-1.09.53-.14.07-.23.17-.3.32-.3.69-.6,1.38-.91,2.06-.08.19-.18.37-.29.59-.1-.19-.19-.35-.27-.52-.28-.62-.55-1.24-.82-1.86-.02-.05-.06-.09-.07-.14-.07-.28-.27-.42-.51-.54-.75-.35-1.49-.72-2.24-1.08-.14-.07-.15-.08-.03-.19.06-.06.14-.12.22-.15.72-.35,1.45-.7,2.17-1.04.16-.08.27-.18.34-.36.33-.77.67-1.53,1.02-2.29.05-.11.12-.21.17-.31.01,0,.03,0,.04,0Z" style="fill:#52565a;"/></g></svg>