<?xml version="1.0" encoding="UTF-8"?><svg id="uuid-7a40af42-1809-4985-a954-a5d704733c38" xmlns="http://www.w3.org/2000/svg" viewBox="0 0 30 30"><g id="uuid-eb222616-91dc-4750-a438-e7c5e741cfa9"><path d="m15.92,28.09c-.08,0-.17,0-.25,0-4.86,0-9.72,0-14.58,0-.67,0-.83-.13-.93-.89-.45-3.39.02-6.56,1.86-9.37,1.33-2.03,3.11-3.38,5.21-4.22.08-.03.22,0,.3.06,1.36,1.22,2.92,1.86,4.66,1.9,1.02.02,2.01-.2,2.96-.63.05-.02.09-.04.19-.08-.56.82-.46,1.56.07,2.28.03.04.05.09.08.12.34.32.29.69.09,1.06-.04.08-.13.15-.21.17-.25.06-.5.09-.75.13-.65.12-1.13.63-1.17,1.37-.04.76-.03,1.53,0,2.3.03.65.48,1.16,1.06,1.29.28.06.57.1.85.17.09.02.18.12.23.21.06.1.11.23.13.35.02.11.02.25-.03.34-.14.26-.32.49-.47.74-.39.64-.33,1.41.15,1.97.2.23.42.43.63.64-.02.03-.04.07-.06.1Z" style="fill:#52565a;"/><path d="m17.49,13.89c.15.08.29.13.4.21.27.21.54.44.8.66.21.17.43.19.66.07.25-.13.49-.24.75-.35.22-.09.36-.26.4-.53.05-.36.1-.72.15-1.08.06-.46.25-.67.65-.68.52,0,1.05,0,1.57,0,.4,0,.59.22.65.68.05.36.1.72.15,1.08.04.27.18.43.4.53.25.11.5.22.75.35.24.12.46.1.66-.08.27-.22.53-.44.8-.66.3-.24.56-.21.82.08.37.41.74.83,1.11,1.25.28.32.29.61.06.97-.19.3-.38.59-.57.88-.15.24-.18.47-.06.74.12.27.21.56.31.84.09.26.25.41.5.45.32.05.64.12.95.17.39.07.57.29.57.73,0,.58,0,1.16,0,1.74,0,.48-.18.69-.6.76-.32.06-.64.11-.95.17-.24.04-.38.2-.47.45-.1.28-.2.57-.31.84-.11.26-.09.49.06.72.2.31.4.62.6.93.21.34.19.63-.07.93-.37.43-.75.85-1.13,1.27-.26.29-.52.31-.82.07-.27-.21-.54-.44-.8-.66-.22-.18-.43-.21-.68-.07-.23.13-.48.23-.72.34-.22.1-.36.26-.4.53-.05.36-.1.72-.15,1.08-.06.47-.26.67-.68.67-.51,0-1.03,0-1.54,0-.39,0-.59-.21-.65-.64-.05-.37-.1-.74-.15-1.11-.04-.27-.18-.44-.4-.53-.25-.11-.5-.22-.75-.35-.24-.13-.45-.1-.66.07-.27.22-.53.44-.8.66-.3.24-.56.22-.82-.06-.39-.43-.77-.86-1.15-1.3-.25-.29-.26-.57-.05-.9.19-.3.38-.59.57-.88.17-.25.2-.5.07-.8-.11-.25-.2-.5-.28-.76-.1-.31-.28-.49-.57-.53-.28-.04-.57-.1-.85-.14-.46-.08-.62-.28-.62-.8,0-.58,0-1.16,0-1.74,0-.41.18-.64.54-.7.33-.06.65-.12.98-.17.24-.04.4-.18.49-.43.11-.31.23-.62.34-.92.1-.25.05-.48-.09-.69-.19-.29-.38-.59-.57-.88-.23-.36-.21-.65.06-.97.37-.42.73-.84,1.11-1.25.11-.12.27-.19.42-.29Zm4.61,10.45c1.59,0,2.88-1.45,2.89-3.24.01-1.78-1.32-3.27-2.9-3.27-1.57,0-2.88,1.48-2.89,3.25,0,1.79,1.29,3.25,2.9,3.25Z" style="fill:#52565a;"/><path d="m18.55,7.06c0,3.87-2.82,7.05-6.26,7.06-3.47,0-6.29-3.16-6.29-7.05C5.99,3.17,8.8,0,12.27,0c3.46,0,6.27,3.16,6.28,7.06Z" style="fill:#52565a;"/></g></svg>